<?xml version="1.0" encoding="UTF-8"?><svg id="a" xmlns="http://www.w3.org/2000/svg" viewBox="0 0 1340 300"><defs><style>.b{fill:#00233d;}.c{fill:#0081cc;}.d{fill:#0095d8;}.e{fill:#bce2e8;}.f{fill:#20aee5;}</style></defs><g><g><path class="c" d="M277.67545,215.62427l-2.02053,3.49995c-2.02056,3.5,.50536,7.87484,4.54673,7.87484h4.04168c1.8756,0,3.60873-1.00059,4.54657-2.62488l2.02082-3.49995c2.02085-3.5-.50505-7.87512-4.54657-7.87512h-4.04196c-1.87571,0-3.60893,1.00072-4.54673,2.62516Z"/><path class="c" d="M213.01305,215.62413l-18.18684,31.50089c-2.0207,3.5,.50521,7.87498,4.54665,7.87498h4.04122c1.87568,0,3.60888-1.00068,4.54668-2.62509l13.13456-22.75076c.93781-1.62441,2.671-2.62509,4.54668-2.62509h26.26992c1.87571,0,3.60892-1.00071,4.54672-2.62515l2.02054-3.49995c2.02057-3.5-.50534-7.87485-4.54672-7.87485h-36.37278c-1.87565,0-3.60883,1.00065-4.54665,2.62502Z"/><path class="c" d="M229.17867,243.62399l-2.02129,3.50105c-2.02069,3.5,.50522,7.87496,4.54665,7.87496h4.04127c1.87566,0,3.60884-1.00066,4.54665-2.62504l2.02129-3.50105c2.02069-3.5-.50522-7.87496-4.54665-7.87496h-4.04127c-1.87566,0-3.60884,1.00066-4.54665,2.62504Z"/><path class="c" d="M189.26978,212.99911h-36.37358c-1.87565,0-3.60883,1.00065-4.54665,2.62502l-18.18684,31.50089c-2.0207,3.5,.50521,7.87498,4.54665,7.87498h36.37358c1.87565,0,3.60883-1.00065,4.54665-2.62502l18.18684-31.50089c2.0207-3.5-.50521-7.87498-4.54665-7.87498Z"/></g><g><path class="e" d="M310.00773,159.6243l-2.02079,3.49989c-2.02085,3.5,.50504,7.87513,4.54656,7.87513h4.04104c1.87559,0,3.60872-1.00059,4.54656-2.62487l2.02079-3.49989c2.02085-3.5-.50504-7.87513-4.54656-7.87513h-4.04104c-1.87559,0-3.60872,1.00059-4.54656,2.62487Z"/><path class="e" d="M306.97632,107.12452l-2.02082-3.49995c-.93784-1.62429-2.67097-2.62488-4.54657-2.62488h-4.04108c-4.04151,0-6.56741,4.37512-4.54657,7.87512l2.02082,3.49995c.93784,1.62429,2.67097,2.62488,4.54657,2.62488h4.04108c4.04151,0,6.56741-4.37512,4.54657-7.87512Z"/><path class="e" d="M284.24332,128.99953h-4.04168c-4.04137,0-6.56729,4.37484-4.54673,7.87484l2.02053,3.49995c.9378,1.62445,2.67102,2.62516,4.54673,2.62516h4.04196c4.04151,0,6.56741-4.37512,4.54657-7.87512l-2.02082-3.49995c-.93784-1.62429-2.67097-2.62488-4.54657-2.62488Z"/><path class="e" d="M245.34422,159.6244l-18.18665,31.49974c-2.02076,3.5,.50515,7.87503,4.54662,7.87503h4.04123c1.87559,0,3.60872-1.00059,4.54656-2.62488l13.13558-22.75009c.93784-1.62429,2.67097-2.62488,4.54656-2.62488h26.2692c1.87559,0,3.60872-1.00059,4.54656-2.62487l2.02079-3.49989c2.02085-3.5-.50504-7.87513-4.54656-7.87513h-36.37328c-1.87563,0-3.60879,1.00063-4.54662,2.62497Z"/><path class="e" d="M270.09805,184.99927h-4.04146c-1.8757,0-3.60891,1.00071-4.54672,2.62514l-2.02052,3.49989c-2.02058,3.5,.50534,7.87486,4.54672,7.87486h4.04147c1.87571,0,3.60892-1.00071,4.54672-2.62515l2.02051-3.49989c2.02057-3.5-.50535-7.87485-4.54672-7.87485Z"/><path class="e" d="M227.15756,108.87471l18.18666,31.49979c.93783,1.62434,2.67098,2.62497,4.54662,2.62497h4.04131c4.04145,0,6.56735-4.37499,4.54664-7.87499l-7.07242-12.24987c-2.02071-3.5,.50519-7.87499,4.54664-7.87499h14.14505c4.04137,0,6.56729-4.37484,4.54673-7.87484l-2.02053-3.49995c-.9378-1.62445-2.67102-2.62516-4.54673-2.62516h-36.37336c-4.04147,0-6.56737,4.37503-4.54662,7.87503Z"/><path class="e" d="M203.41417,100.99969h-36.37259c-4.04142,0-6.56733,4.37494-4.54667,7.87494l18.18584,31.49979c.93781,1.62439,2.671,2.62506,4.54667,2.62506h36.37345c4.04147,0,6.56737-4.37503,4.54662-7.87503l-18.1867-31.49979c-.93783-1.62434-2.67098-2.62497-4.54662-2.62497Z"/><path class="e" d="M207.96078,196.3742l18.1867-31.49974c2.02076-3.5-.50514-7.87503-4.54661-7.87503h-36.37345c-1.87567,0-3.60885,1.00067-4.54667,2.62506l-18.18583,31.49974c-2.02066,3.5,.50525,7.87494,4.54667,7.87494h36.37258c1.87563,0,3.60879-1.00063,4.54661-2.62497Z"/><path class="e" d="M168.55678,147.37442l-18.18675-31.49991c-2.02073-3.49996-7.0725-3.49996-9.09323,0l-18.18675,31.49991c-.93784,1.62437-.93784,3.62569,0,5.25006l18.18675,31.49991c2.02073,3.49996,7.0725,3.49996,9.09323,0l18.18675-31.49991c.93784-1.62437,.93784-3.62569,0-5.25006Z"/></g><g><path class="f" d="M243.32373,80.87468l2.02053,3.49995c.9378,1.62445,2.67102,2.62516,4.54673,2.62516h4.04148c4.04138,0,6.56729-4.37485,4.54672-7.87485l-2.02054-3.49995c-.9378-1.62444-2.67101-2.62515-4.54672-2.62515h-4.04147c-4.04137,0-6.56729,4.37484-4.54673,7.87484Z"/><path class="f" d="M217.55966,86.99979h4.04132c4.04144,0,6.56735-4.37498,4.54664-7.87498l-7.07244-12.24993c-2.02071-3.5,.5052-7.87498,4.54664-7.87498h14.14504c4.04137,0,6.56729-4.37485,4.54672-7.87485l-2.02051-3.49989c-.9378-1.62444-2.67101-2.62515-4.54672-2.62515h-36.37339c-4.04147,0-6.56737,4.37503-4.54662,7.87503l18.18668,31.49979c.93783,1.62434,2.67098,2.62497,4.54662,2.62497Z"/><path class="f" d="M152.89616,86.99979h36.3735c4.04147,0,6.56737-4.37503,4.54662-7.87503l-18.18668-31.49979c-.93783-1.62434-2.67098-2.62497-4.54662-2.62497h-36.3735c-4.04147,0-6.56737,4.37503-4.54662,7.87503l18.18668,31.49979c.93783,1.62434,2.67098,2.62497,4.54662,2.62497Z"/></g><g><path class="d" d="M136.2256,203.37411l-18.18675-31.49991c-2.02073-3.49996-7.0725-3.49996-9.09323,0l-18.18675,31.49991c-.93784,1.62437-.93784,3.62569,0,5.25006l18.18675,31.49991c2.02073,3.49996,7.0725,3.49996,9.09323,0l18.18675-31.49991c.93784-1.62437,.93784-3.62569,0-5.25006Z"/><path class="d" d="M118.03885,128.12465l18.18675-31.49991c.93785-1.62437,.93784-3.62569,0-5.25006l-18.18675-31.49987c-2.02073-3.49996-7.0725-3.49996-9.09323,0l-18.18675,31.49987c-.93785,1.62437-.93785,3.62569,0,5.25006l18.18675,31.49991c2.02073,3.49996,7.0725,3.49996,9.09323,0Z"/><path class="d" d="M103.89342,147.37451l-18.1858-31.49973c-2.02069-3.50004-7.07253-3.50009-9.09329-.00009l-18.18664,31.49973c-.93784,1.62437-.93784,3.62569,0,5.25006l18.18664,31.49973c2.02076,3.5,7.0726,3.49995,9.09329-.00009l18.1858-31.49973c.93777-1.62432,.93777-3.62555,0-5.24988Z"/></g></g><g><path class="b" d="M415.17743,219.98244c-13.16131,0-22.88726-3.14638-29.1811-9.43914-6.29276-6.29384-9.43914-16.01979-9.43914-29.1811v-39.65537c0-13.2756,3.13128-23.05978,9.396-29.35362,6.26364-6.29276,15.94862-9.38091,29.0517-9.26661h20.86228c10.80422,0,19.05187,2.2277,24.7408,6.68093,5.69001,4.45431,8.99381,11.48029,9.91465,21.07793,.34397,2.41316-.11645,4.25376-1.38018,5.51641-1.26481,1.26481-3.10325,1.89667-5.51641,1.89667-4.36913,0-6.89659-2.41316-7.58668-7.24163-.57472-5.28674-2.40022-8.84932-5.47435-10.68884-3.07521-1.83844-7.97377-2.75928-14.69784-2.75928h-20.86228c-6.0922-.05607-10.87646,.63294-14.35279,2.06919-3.47848,1.43733-5.94879,3.92273-7.41415,7.45728-1.46536,3.53455-2.19858,8.40508-2.19858,14.61157v39.65537c0,6.15043,.73322,10.97782,2.19858,14.48218,1.46536,3.50652,3.95076,5.99192,7.45728,7.45728,3.50436,1.46536,8.33176,2.19858,14.48218,2.19858h20.68976c6.72406,0,11.62262-.93378,14.69784-2.80241,3.07413-1.86648,4.89964-5.41613,5.47435-10.64679,.69009-4.82739,3.21754-7.24055,7.58668-7.24055,2.41316,0,4.2516,.63294,5.51641,1.89667,1.26373,1.26481,1.72415,3.10325,1.38018,5.51641-.92084,9.65587-4.22464,16.69586-9.91465,21.12106-5.68893,4.42628-13.93658,6.6378-24.7408,6.6378h-20.68976Z"/><path class="b" d="M532.07433,219.98244c-11.43716,0-19.9285-2.7582-25.47402-8.27569-5.5466-5.51748-8.31882-13.96569-8.31882-25.34463v-19.99967c0-11.55254,2.77222-20.07191,8.31882-25.56028,5.54552-5.48837,14.03686-8.23256,25.47402-8.23256h14.13822c11.49323,0,19.99967,2.7582,25.51715,8.27569,5.51641,5.51641,8.27569,14.02284,8.27569,25.51715v19.82714c0,11.43716-2.75928,19.9285-8.27569,25.47402-5.51748,5.5466-14.02392,8.31882-25.51715,8.31882h-14.13822Zm-19.31065-33.62031c0,7.41307,1.34999,12.45612,4.05212,15.12914,2.70105,2.67194,7.78723,4.00899,15.25853,4.00899h14.13822c7.52737,0,12.62864-1.34999,15.30166-4.05212,2.67194-2.70105,4.00791-7.78723,4.00791-15.25853v-19.82714c0-7.52845-1.33597-12.62972-4.00791-15.30166-2.67302-2.67302-7.77429-4.00899-15.30166-4.00899h-14.13822c-4.99992,0-8.89461,.5607-11.68085,1.68102-2.78839,1.12032-4.75623,3.07521-5.90566,5.86253-1.14943,2.78732-1.72415,6.71005-1.72415,11.76711v19.99967Z"/><path class="b" d="M716.03719,132.56962c10.86245,0,18.6637,2.55765,23.40483,7.67186,4.74113,5.11529,7.11224,13.59261,7.11224,25.43089v47.06844c0,4.82739-2.41424,7.24163-7.24163,7.24163s-7.24055-2.41424-7.24055-7.24163v-47.06844c0-6.55154-1.25079-11.29267-3.75021-14.22448-2.5005-2.93073-6.59467-4.39609-12.28468-4.39609h-7.06911c-6.55154,0-11.2366,1.46536-14.05195,4.39609-2.81643,2.9318-4.22357,7.67294-4.22357,14.22448v47.06844c0,4.82739-2.41424,7.24163-7.24163,7.24163s-7.24055-2.41424-7.24055-7.24163v-47.06844c0-6.55154-1.25079-11.29267-3.75021-14.22448-2.5005-2.93073-6.59467-4.39609-12.28468-4.39609h-7.06911c-6.55154,0-11.2366,1.46536-14.05195,4.39609-2.81643,2.9318-4.22357,7.67294-4.22357,14.22448v47.06844c0,4.82739-2.41424,7.24163-7.24163,7.24163s-7.24163-2.41424-7.24163-7.24163v-72.93064c0-4.82739,2.41424-7.24055,7.24163-7.24055s7.24163,2.41316,7.24163,7.24055v3.96586c3.04502-3.96586,6.39304-6.82434,10.04296-8.5776,3.64885-1.75218,8.00289-2.62881,13.05995-2.62881h2.24171c7.12518,0,12.72892,.99093,16.81016,2.97386,4.08016,1.98293,7.1834,5.18646,9.31082,9.61166,3.04502-4.5395,6.27766-7.77214,9.69792-9.69792,3.4181-1.9247,7.7441-2.88759,12.97369-2.88759h7.06911Z"/><path class="b" d="M796.55235,219.98244c-4.82739,0-7.24163-2.41424-7.24163-7.24163V105.84481c0-4.82739,2.41424-7.24055,7.24163-7.24055s7.24163,2.41316,7.24163,7.24055v35.94829c2.98787-3.04502,6.72406-5.34496,11.20641-6.89659,4.48343-1.55162,9.71194-2.3269,15.68984-2.3269h6.55154c11.49431,0,19.99967,2.7582,25.51715,8.27569,5.51748,5.51641,8.27569,14.02284,8.27569,25.51715v19.82714c0,11.43716-2.7582,19.9285-8.27569,25.47402-5.51748,5.5466-14.02284,8.31882-25.51715,8.31882h-6.55154c-5.9779,0-11.20641-.77635-15.68984-2.32797-4.48235-1.55162-8.21854-3.82137-11.20641-6.81032v1.89667c0,4.82739-2.41424,7.24163-7.24163,7.24163Zm34.13788-14.48218h6.55154c7.52845,0,12.62972-1.36508,15.30166-4.09525,2.67302-2.72909,4.00899-7.80125,4.00899-15.2154v-19.82714c0-7.52845-1.36616-12.62972-4.09525-15.30166-2.73017-2.67302-7.80125-4.00899-15.2154-4.00899h-6.55154c-7.5856,0-13.96569,.96289-19.13813,2.88759-5.17244,1.92686-7.75812,4.92875-7.75812,9.00891v34.65545c0,4.02301,2.58568,7.01196,7.75812,8.9647,5.17244,1.9549,11.55254,2.9318,19.13813,2.9318Z"/><path class="b" d="M941.03236,219.98244c-11.43716,0-19.9285-2.7582-25.47402-8.27569-5.5466-5.51748-8.31882-13.96569-8.31882-25.34463v-19.99967c0-11.55254,2.77222-20.07191,8.31882-25.56028,5.54552-5.48837,14.03686-8.23256,25.47402-8.23256h14.13822c11.49323,0,19.99967,2.7582,25.51715,8.27569,5.51641,5.51641,8.27569,14.02284,8.27569,25.51715v19.82714c0,11.43716-2.75928,19.9285-8.27569,25.47402-5.51748,5.5466-14.02392,8.31882-25.51715,8.31882h-14.13822Zm-19.31065-33.62031c0,7.41307,1.34999,12.45612,4.05212,15.12914,2.70105,2.67194,7.78723,4.00899,15.25853,4.00899h14.13822c7.52737,0,12.62864-1.34999,15.30166-4.05212,2.67194-2.70105,4.00791-7.78723,4.00791-15.25853v-19.82714c0-7.52845-1.33597-12.62972-4.00791-15.30166-2.67302-2.67302-7.77429-4.00899-15.30166-4.00899h-14.13822c-4.99992,0-8.89461,.5607-11.68085,1.68102-2.78839,1.12032-4.75623,3.07521-5.90566,5.86253s-1.72415,6.71005-1.72415,11.76711v19.99967Z"/><path class="b" d="M1049.99539,254.46537c-6.95373,0-12.42809-1.40929-16.42198-4.22464-3.99497-2.81643-6.56664-7.09822-7.71607-12.8443-.40219-2.41424,.02911-4.31091,1.29392-5.69001,1.26265-1.3791,3.18951-2.06919,5.77519-2.06919,2.18349,0,3.77824,.58873,4.78426,1.76728,1.00494,1.17747,1.88265,2.94474,2.62989,5.30183,.69009,1.26373,1.76728,2.12526,3.23264,2.58676,1.46536,.45934,3.60572,.68901,6.42215,.68901h32.06869c4.31091,0,7.11224-.67607,8.40508-2.02606,1.29392-1.35107,1.9398-4.12437,1.9398-8.31882v-20.08593c-3.10325,3.39222-6.93972,5.9779-11.50833,7.7592-4.56861,1.78129-9.69792,2.67194-15.38793,2.67194h-6.55154c-11.43716,0-19.9285-2.7582-25.47402-8.27569-5.5466-5.51748-8.31882-13.96569-8.31882-25.34463v-19.99967c0-11.55254,2.74419-20.07191,8.23256-25.56028,5.48729-5.48837,14.00882-8.23256,25.56028-8.23256h14.13822c4.07908,0,7.74302,.60275,10.99076,1.80933,3.24666,1.20766,6.01996,3.04718,8.31882,5.51748v-.08626c0-4.82739,2.41424-7.24055,7.24163-7.24055s7.24163,2.41316,7.24163,7.24055v89.82705c0,8.44821-2.02606,14.69891-6.07818,18.74996-4.05104,4.05212-10.30175,6.07818-18.74996,6.07818h-32.06869Zm8.96578-48.96511h6.55154c7.58668,0,13.96569-.94887,19.13813-2.84554,5.17244-1.89667,7.75812-4.91366,7.75812-9.05096v-34.48293c0-4.65487-1.68102-7.83036-5.04305-9.52647-3.36203-1.69395-8.11826-2.54255-14.26653-2.54255h-14.13822c-7.41415,0-12.48631,1.32303-15.2154,3.96586-2.73017,2.64391-4.09525,7.75812-4.09525,15.34479v19.99967c0,7.29878,1.34999,12.31379,4.05212,15.04288,2.70105,2.73017,7.78723,4.09525,15.25853,4.09525Z"/><path class="b" d="M1154.47715,118.43141c-5.46141,0-8.1905-2.75928-8.1905-8.27569v-5.08618c0-5.40211,2.72909-8.10424,8.1905-8.10424h4.99992c5.22851,0,7.84438,2.70213,7.84438,8.10424v5.08618c0,5.51641-2.61587,8.27569-7.84438,8.27569h-4.99992Zm2.41316,101.55103c-4.82739,0-7.24163-2.41424-7.24163-7.24163v-72.93064c0-4.82739,2.41424-7.24055,7.24163-7.24055s7.24163,2.41316,7.24163,7.24055v72.93064c0,4.82739-2.41424,7.24163-7.24163,7.24163Z"/><path class="b" d="M1238.26808,219.98244c-11.43716,0-19.9285-2.77222-25.47402-8.31882-5.5466-5.54552-8.31882-14.03686-8.31882-25.47402v-19.99967c0-11.49431,2.74419-20.00074,8.23256-25.51715,5.48729-5.51748,14.00882-8.21854,25.56028-8.10316h14.13822c8.56251,0,15.30166,1.43625,20.21532,4.30983,4.91366,2.87466,8.06003,7.29878,9.43914,13.2756,.51757,2.41424,.10028,4.28179-1.24971,5.60375-1.35107,1.32303-3.29087,1.98293-5.8194,1.98293-2.24064,0-3.87852-.57364-4.91366-1.72415-1.03406-1.14943-1.98293-2.75928-2.84446-4.82739-.86261-1.5527-2.44335-2.62989-4.74113-3.23372-2.29994-.60275-5.66197-.90466-10.08609-.90466h-14.13822c-7.41415-.1143-12.48631,1.16345-15.2154,3.83647-2.73017,2.67194-4.09525,7.77322-4.09525,15.30166v19.99967c0,7.4713,1.36508,12.55748,4.09525,15.25853,2.72909,2.70213,7.80125,4.05212,15.2154,4.05212h14.13822c4.42412,0,7.78615-.30191,10.08609-.90574,2.29778-.60383,3.87852-1.68102,4.74113-3.23264,.86153-2.18349,1.82335-3.82137,2.88759-4.91366,1.06317-1.0912,2.74419-1.63789,5.04305-1.63789,2.41424,0,4.29581,.66098,5.64688,1.98293,1.34999,1.32195,1.76728,3.18951,1.24971,5.60267-1.3791,5.92076-4.52548,10.33194-9.43914,13.23355-4.91366,2.90269-11.65281,4.35296-20.21532,4.35296h-14.13822Z"/></g></svg>