<?xml version="1.0" encoding="UTF-8"?><svg id="a" xmlns="http://www.w3.org/2000/svg" viewBox="0 0 64 64"><defs><style>.b{fill:#0081cc;}.c{fill:#0095d8;}.d{fill:#20aee5;}</style></defs><path class="d" d="M49.63778,1.98256H27.35578c-2.47579,0-4.02317,2.68011-2.78531,4.82422l11.14072,19.2969c.57451,.99511,1.63627,1.60812,2.78531,1.60812h22.28253c2.47582,0,4.0232-2.68016,2.78528-4.82428L52.42306,3.59062c-.57452-.99508-1.63626-1.60807-2.78528-1.60807Z"/><path class="b" d="M52.42306,60.40938l11.14124-19.29687c1.23793-2.14411-.30945-4.82428-2.78527-4.82428h-22.28252c-1.14904,0-2.2108,.61301-2.78531,1.60812l-11.14072,19.29687c-1.23787,2.14411,.30952,4.82422,2.78531,4.82422h22.282c1.14902,0,2.21076-.61299,2.78527-1.60807Z"/><path class="c" d="M28.284,30.39191L17.14273,11.09494c-1.23791-2.14409-4.33264-2.14409-5.57055,0L.4309,30.39191c-.57453,.9951-.57453,2.22111,0,3.21621l11.14128,19.29697c1.23791,2.14409,4.33264,2.14409,5.57055,0l11.14128-19.29697c.57453-.9951,.57453-2.22111,0-3.21621Z"/></svg>