<?xml version="1.0" encoding="UTF-8"?><svg id="a" xmlns="http://www.w3.org/2000/svg" viewBox="0 0 1200 300"><defs><style>.b{fill:#004056;}.c{fill:#0081cc;}.d{fill:#0095d8;}.e{fill:#fff;}.f{fill:#dcdddd;}.g{fill:#20aee5;}</style></defs><g><g><path class="c" d="M273.17992,215.62437l-2.02052,3.49994c-2.02055,3.49999,.50536,7.87482,4.54672,7.87482h4.04167c1.87559,0,3.60872-1.00059,4.54655-2.62488l2.02081-3.49994c2.02084-3.49999-.50505-7.8751-4.54655-7.8751h-4.04195c-1.87571,0-3.60892,1.00071-4.54672,2.62516Z"/><path class="c" d="M208.51768,215.62423l-18.1868,31.50081c-2.0207,3.49999,.5052,7.87496,4.54664,7.87496h4.04121c1.87568,0,3.60887-1.00068,4.54667-2.62508l13.13453-22.75071c.93781-1.6244,2.671-2.62508,4.54667-2.62508h26.26986c1.8757,0,3.60891-1.00071,4.54671-2.62514l2.02054-3.49994c2.02057-3.49999-.50534-7.87483-4.54671-7.87483h-36.37269c-1.87565,0-3.60882,1.00065-4.54664,2.62502Z"/><path class="c" d="M224.68327,243.62402l-2.02129,3.50104c-2.02068,3.49999,.50522,7.87494,4.54664,7.87494h4.04126c1.87565,0,3.60883-1.00066,4.54664-2.62503l2.02129-3.50104c2.02068-3.49999-.50522-7.87494-4.54664-7.87494h-4.04126c-1.87565,0-3.60883,1.00066-4.54664,2.62503Z"/><path class="c" d="M184.77447,212.99921h-36.37349c-1.87565,0-3.60882,1.00065-4.54664,2.62502l-18.1868,31.50081c-2.0207,3.49999,.5052,7.87496,4.54664,7.87496h36.37349c1.87565,0,3.60882-1.00065,4.54664-2.62502l18.1868-31.50081c2.0207-3.49999-.5052-7.87496-4.54664-7.87496Z"/></g><g><path class="b" d="M305.51212,159.62453l-2.02079,3.49989c-2.02085,3.49999,.50504,7.87511,4.54655,7.87511h4.04103c1.87559,0,3.60871-1.00059,4.54655-2.62487l2.02079-3.49989c2.02085-3.49999-.50504-7.87511-4.54655-7.87511h-4.04103c-1.87559,0-3.60871,1.00059-4.54655,2.62487Z"/><path class="b" d="M302.48073,107.12487l-2.02081-3.49994c-.93784-1.62429-2.67096-2.62488-4.54655-2.62488h-4.04107c-4.0415,0-6.5674,4.37511-4.54655,7.8751l2.02081,3.49994c.93784,1.62429,2.67096,2.62488,4.54655,2.62488h4.04107c4.0415,0,6.5674-4.37511,4.54655-7.8751Z"/><path class="b" d="M279.74778,128.99983h-4.04167c-4.04136,0-6.56727,4.37483-4.54672,7.87482l2.02052,3.49994c.9378,1.62444,2.67101,2.62516,4.54672,2.62516h4.04195c4.0415,0,6.5674-4.37511,4.54655-7.8751l-2.02081-3.49994c-.93784-1.62429-2.67096-2.62488-4.54655-2.62488Z"/><path class="b" d="M240.84878,159.62463l-18.18661,31.49966c-2.02075,3.49999,.50515,7.87501,4.54661,7.87501h4.04122c1.87559,0,3.60871-1.00059,4.54655-2.62487l13.13555-22.75003c.93784-1.62428,2.67096-2.62487,4.54655-2.62487h26.26913c1.87559,0,3.60871-1.00059,4.54655-2.62487l2.02079-3.49989c2.02085-3.49999-.50504-7.87511-4.54655-7.87511h-36.37319c-1.87563,0-3.60878,1.00063-4.54661,2.62496Z"/><path class="b" d="M265.60254,184.99944h-4.04145c-1.8757,0-3.60891,1.0007-4.5467,2.62514l-2.02051,3.49989c-2.02058,3.49999,.50533,7.87484,4.5467,7.87484h4.04146c1.8757,0,3.60892-1.00071,4.54671-2.62515l2.0205-3.49989c2.02056-3.49999-.50535-7.87483-4.54671-7.87483Z"/><path class="b" d="M222.66216,108.87506l18.18662,31.49972c.93782,1.62434,2.67098,2.62497,4.54661,2.62497h4.0413c4.04144,0,6.56734-4.37498,4.54663-7.87497l-7.0724-12.24984c-2.02071-3.49999,.50519-7.87497,4.54663-7.87497h14.14502c4.04136,0,6.56727-4.37483,4.54672-7.87482l-2.02052-3.49994c-.9378-1.62444-2.67101-2.62516-4.54672-2.62516h-36.37327c-4.04146,0-6.56736,4.37502-4.54661,7.87501Z"/><path class="b" d="M198.91882,101.00006h-36.3725c-4.04141,0-6.56732,4.37493-4.54666,7.87492l18.1858,31.49972c.93781,1.62439,2.67099,2.62506,4.54666,2.62506h36.37336c4.04146,0,6.56736-4.37502,4.5466-7.87501l-18.18666-31.49972c-.93782-1.62433-2.67098-2.62496-4.5466-2.62496Z"/><path class="b" d="M203.46543,196.37434l18.18665-31.49966c2.02076-3.49999-.50514-7.87501-4.5466-7.87501h-36.37336c-1.87566,0-3.60885,1.00067-4.54666,2.62505l-18.18579,31.49966c-2.02066,3.49999,.50525,7.87492,4.54666,7.87492h36.3725c1.87563,0,3.60878-1.00063,4.5466-2.62496Z"/><path class="b" d="M164.06152,147.37468l-18.18671-31.49983c-2.02073-3.49995-7.07248-3.49995-9.09321,0l-18.18671,31.49983c-.93784,1.62437-.93784,3.62568,0,5.25005l18.18671,31.49983c2.02073,3.49995,7.07248,3.49995,9.09321,0l18.18671-31.49983c.93784-1.62437,.93784-3.62568,0-5.25005Z"/></g><g><path class="g" d="M238.82829,80.8751l2.02052,3.49994c.9378,1.62444,2.67101,2.62516,4.54672,2.62516h4.04147c4.04137,0,6.56728-4.37484,4.54671-7.87483l-2.02054-3.49994c-.9378-1.62444-2.67101-2.62514-4.54671-2.62514h-4.04146c-4.04136,0-6.56727,4.37483-4.54672,7.87482Z"/><path class="g" d="M213.06428,87.0002h4.04131c4.04143,0,6.56734-4.37497,4.54663-7.87497l-7.07243-12.2499c-2.0207-3.49999,.5052-7.87497,4.54663-7.87497h14.14501c4.04136,0,6.56727-4.37483,4.54671-7.87483l-2.0205-3.49989c-.9378-1.62444-2.67101-2.62515-4.54671-2.62515h-36.3733c-4.04146,0-6.56736,4.37502-4.54661,7.87501l18.18664,31.49972c.93782,1.62434,2.67098,2.62496,4.54661,2.62496Z"/><path class="g" d="M148.40094,87.0002h36.37341c4.04146,0,6.56736-4.37502,4.54661-7.87501l-18.18664-31.49972c-.93782-1.62434-2.67098-2.62496-4.54661-2.62496h-36.37341c-4.04146,0-6.56736,4.37502-4.54661,7.87501l18.18664,31.49972c.93782,1.62434,2.67098,2.62496,4.54661,2.62496Z"/></g><g><path class="d" d="M131.73042,203.37423l-18.18671-31.49983c-2.02073-3.49995-7.07248-3.49995-9.09321,0l-18.18671,31.49983c-.93784,1.62437-.93784,3.62568,0,5.25005l18.18671,31.49983c2.02073,3.49995,7.07248,3.49995,9.09321,0l18.18671-31.49983c.93784-1.62437,.93784-3.62568,0-5.25005Z"/><path class="d" d="M113.54371,128.12495l18.1867-31.49983c.93784-1.62437,.93784-3.62568,0-5.25005l-18.1867-31.49979c-2.02073-3.49995-7.07248-3.49995-9.09321,0l-18.1867,31.49979c-.93784,1.62437-.93784,3.62568,0,5.25005l18.1867,31.49983c2.02073,3.49995,7.07248,3.49995,9.09321,0Z"/><path class="d" d="M99.39831,147.37477l-18.18576-31.49965c-2.02068-3.50003-7.07251-3.50008-9.09326-.00009l-18.1866,31.49965c-.93784,1.62437-.93784,3.62568,0,5.25005l18.1866,31.49965c2.02075,3.49999,7.07258,3.49994,9.09326-.00009l18.18576-31.49965c.93777-1.62432,.93777-3.62554,0-5.24986Z"/></g></g><g><g><path class="e" d="M405.09521,150.22313c-11.25757,0-19.5767-2.69127-24.96015-8.0738-5.38253-5.38345-8.0738-13.70258-8.0738-24.96015v-33.91935c0-11.35533,2.67835-19.72426,8.0369-25.10772,5.35763-5.38253,13.64171-8.02399,24.84947-7.92623h17.84462c9.24143,0,16.29608,1.90547,21.16213,5.71456,4.86697,3.81001,7.69289,9.81971,8.48053,18.02908,.29421,2.0641-.09961,3.63847-1.18054,4.71848-1.08186,1.08186-2.65437,1.62232-4.71848,1.62232-3.73715,0-5.89902-2.0641-6.48929-6.19415-.49158-4.52203-2.05304-7.5693-4.68251-9.14274-2.63039-1.57252-6.82039-2.36016-12.57184-2.36016h-17.84462c-5.21098-.04796-9.30322,.54139-12.27671,1.76989-2.97533,1.22942-5.08832,3.35532-6.34172,6.37861-1.2534,3.02329-1.88057,7.18931-1.88057,12.49806v33.91935c0,5.26079,.62716,9.38992,1.88057,12.38738,1.2534,2.99931,3.3793,5.12521,6.37861,6.37861,2.99747,1.2534,7.1266,1.88057,12.38738,1.88057h17.69705c5.75145,0,9.94145-.79871,12.57184-2.39705,2.62947-1.5965,4.19092-4.6327,4.68251-9.10677,.59027-4.12913,2.75214-6.19323,6.48929-6.19323,2.0641,0,3.63662,.54139,4.71848,1.62232,1.08093,1.08186,1.47475,2.65437,1.18054,4.71848-.78764,8.25918-3.61356,14.28086-8.48053,18.06597-4.86604,3.78603-11.9207,5.67767-21.16213,5.67767h-17.69705Z"/><path class="e" d="M505.08337,150.22313c-9.78281,0-17.04591-2.35924-21.78929-7.07864-4.7443-4.7194-7.11553-11.9456-7.11553-21.67861v-17.10678c0-9.8815,2.37123-17.16858,7.11553-21.86307,4.74338-4.6945,12.00647-7.04174,21.78929-7.04174h12.09317c9.83077,0,17.10678,2.35924,21.82618,7.07864,4.71848,4.71848,7.07864,11.99449,7.07864,21.82618v16.95921c0,9.78281-2.36016,17.04591-7.07864,21.78929-4.7194,4.7443-11.99541,7.11553-21.82618,7.11553h-12.09317Zm-16.51743-28.75725c0,6.3408,1.15472,10.65439,3.466,12.94076,2.31036,2.28545,6.66084,3.4291,13.05144,3.4291h12.09317c6.43856,0,10.80195-1.15472,13.08833-3.466,2.28545-2.31036,3.42818-6.66084,3.42818-13.05144v-16.95921c0-6.43948-1.14273-10.80288-3.42818-13.08833-2.28638-2.28638-6.64977-3.4291-13.08833-3.4291h-12.09317c-4.2767,0-7.60804,.47959-9.99125,1.43786-2.38506,.95827-4.06826,2.63039-5.05143,5.01453-.98317,2.38414-1.47475,5.73946-1.47475,10.06504v17.10678Z"/><path class="e" d="M662.43663,75.45428c9.29123,0,15.96406,2.18769,20.0194,6.56215,4.05534,4.37538,6.08348,11.62649,6.08348,21.7524v40.26015c0,4.12913-2.06503,6.19415-6.19415,6.19415s-6.19323-2.06503-6.19323-6.19415v-40.26015c0-5.60388-1.06987-9.65923-3.20775-12.16695-2.13881-2.50681-5.64077-3.76021-10.50774-3.76021h-6.04659c-5.60388,0-9.61127,1.2534-12.01939,3.76021-2.40904,2.50773-3.61264,6.56307-3.61264,12.16695v40.26015c0,4.12913-2.06503,6.19415-6.19415,6.19415s-6.19323-2.06503-6.19323-6.19415v-40.26015c0-5.60388-1.06987-9.65923-3.20775-12.16695-2.13881-2.50681-5.64077-3.76021-10.50774-3.76021h-6.04659c-5.60388,0-9.61127,1.2534-12.01939,3.76021-2.40904,2.50773-3.61264,6.56307-3.61264,12.16695v40.26015c0,4.12913-2.06503,6.19415-6.19415,6.19415s-6.19415-2.06503-6.19415-6.19415v-62.38147c0-4.12913,2.06503-6.19323,6.19415-6.19323s6.19415,2.0641,6.19415,6.19323v3.39221c2.60457-3.39221,5.4683-5.83722,8.59028-7.33688,3.12106-1.49873,6.8453-2.24856,11.17087-2.24856h1.91746c6.09454,0,10.88773,.84759,14.37863,2.5437,3.48998,1.69611,6.14435,4.43625,7.96404,8.22136,2.60457-3.88287,5.36962-6.64792,8.29515-8.29515,2.92368-1.6463,6.62394-2.46991,11.09709-2.46991h6.04659Z"/><path class="e" d="M731.30554,150.22313c-4.12913,0-6.19415-2.06503-6.19415-6.19415V52.59512c0-4.12913,2.06503-6.19323,6.19415-6.19323s6.19415,2.0641,6.19415,6.19323v30.74849c2.55569-2.60457,5.75145-4.57183,9.58544-5.89902,3.83491-1.32719,8.30714-1.99032,13.42036-1.99032h5.60388c9.8317,0,17.10678,2.35924,21.82618,7.07864,4.7194,4.71848,7.07864,11.99449,7.07864,21.82618v16.95921c0,9.78281-2.35924,17.04591-7.07864,21.78929-4.7194,4.7443-11.99449,7.11553-21.82618,7.11553h-5.60388c-5.11322,0-9.58544-.66405-13.42036-1.99124-3.83399-1.32719-7.02976-3.26862-9.58544-5.82523v1.62232c0,4.12913-2.06503,6.19415-6.19415,6.19415Zm29.19995-12.38738h5.60388c6.43948,0,10.80288-1.16763,13.08833-3.50289,2.28638-2.33434,3.4291-6.67283,3.4291-13.01455v-16.95921c0-6.43948-1.16855-10.80288-3.50289-13.08833-2.33526-2.28638-6.67283-3.4291-13.01455-3.4291h-5.60388c-6.48837,0-11.9456,.82361-16.36987,2.46991-4.42426,1.64815-6.63593,4.21582-6.63593,7.7058v29.64266c0,3.44109,2.21167,5.9977,6.63593,7.66799,4.42426,1.67213,9.8815,2.50773,16.36987,2.50773Z"/><path class="e" d="M854.88701,150.22313c-9.78281,0-17.04591-2.35924-21.78929-7.07864-4.7443-4.7194-7.11553-11.9456-7.11553-21.67861v-17.10678c0-9.8815,2.37123-17.16858,7.11553-21.86307,4.74338-4.6945,12.00647-7.04174,21.78929-7.04174h12.09317c9.83077,0,17.10678,2.35924,21.82618,7.07864,4.71848,4.71848,7.07864,11.99449,7.07864,21.82618v16.95921c0,9.78281-2.36016,17.04591-7.07864,21.78929-4.7194,4.7443-11.99541,7.11553-21.82618,7.11553h-12.09317Zm-16.51743-28.75725c0,6.3408,1.15472,10.65439,3.466,12.94076,2.31036,2.28545,6.66084,3.4291,13.05144,3.4291h12.09317c6.43856,0,10.80195-1.15472,13.08833-3.466,2.28545-2.31036,3.42818-6.66084,3.42818-13.05144v-16.95921c0-6.43948-1.14273-10.80288-3.42818-13.08833-2.28638-2.28638-6.64977-3.4291-13.08833-3.4291h-12.09317c-4.2767,0-7.60804,.47959-9.99125,1.43786-2.38506,.95827-4.06826,2.63039-5.05143,5.01453s-1.47475,5.73946-1.47475,10.06504v17.10678Z"/><path class="e" d="M948.08891,179.71822c-5.9479,0-10.63041-1.20544-14.0466-3.61356-3.41711-2.40904-5.61679-6.07149-6.59996-10.98641-.34402-2.06503,.0249-3.68735,1.10676-4.86697,1.08001-1.17962,2.72816-1.76989,4.93983-1.76989,1.86765,0,3.23173,.50357,4.09224,1.51165,.85958,1.00715,1.61033,2.5188,2.24948,4.53494,.59027,1.08093,1.51165,1.81785,2.76505,2.21259,1.2534,.3929,3.08416,.58935,5.49321,.58935h27.43006c3.68735,0,6.08348-.57828,7.18931-1.733,1.10676-1.15564,1.65921-3.52779,1.65921-7.11553v-17.18057c-2.65437,2.90155-5.93591,5.11322-9.84369,6.63686-3.90778,1.52364-8.29515,2.28545-13.16211,2.28545h-5.60388c-9.78281,0-17.04591-2.35924-21.78929-7.07864-4.7443-4.7194-7.11553-11.9456-7.11553-21.67861v-17.10678c0-9.8815,2.34725-17.16858,7.04174-21.86307,4.69357-4.6945,11.9825-7.04174,21.86307-7.04174h12.09317c3.48905,0,6.62302,.51556,9.40098,1.54762,2.77704,1.03297,5.14919,2.60641,7.11553,4.7194v-.07378c0-4.12913,2.06503-6.19323,6.19415-6.19323s6.19415,2.0641,6.19415,6.19323v76.83388c0,7.2262-1.733,12.57277-5.19899,16.03784-3.46507,3.466-8.81163,5.19899-16.03784,5.19899h-27.43006Zm7.66891-41.88247h5.60388c6.48929,0,11.9456-.81162,16.36987-2.43394,4.42426-1.62232,6.63593-4.20291,6.63593-7.74177v-29.49509c0-3.98156-1.43786-6.69773-4.31359-8.1485-2.87573-1.44893-6.94398-2.17478-12.20292-2.17478h-12.09317c-6.34172,0-10.68021,1.13166-13.01455,3.39221-2.33526,2.26147-3.50289,6.63593-3.50289,13.12522v17.10678c0,6.24303,1.15472,10.53264,3.466,12.86698,2.31036,2.33526,6.66084,3.50289,13.05144,3.50289Z"/><path class="e" d="M1037.45774,63.36111c-4.67144,0-7.00578-2.36016-7.00578-7.07864v-4.35048c0-4.62071,2.33434-6.93199,7.00578-6.93199h4.2767c4.47222,0,6.70972,2.31128,6.70972,6.93199v4.35048c0,4.71848-2.23749,7.07864-6.70972,7.07864h-4.2767Zm2.0641,86.86202c-4.12913,0-6.19415-2.06503-6.19415-6.19415v-62.38147c0-4.12913,2.06503-6.19323,6.19415-6.19323s6.19415,2.0641,6.19415,6.19323v62.38147c0,4.12913-2.06503,6.19415-6.19415,6.19415Z"/><path class="e" d="M1109.12859,150.22313c-9.78281,0-17.04591-2.37123-21.78929-7.11553-4.7443-4.74338-7.11553-12.00647-7.11553-21.78929v-17.10678c0-9.8317,2.34725-17.1077,7.04174-21.82618,4.69357-4.7194,11.9825-7.02976,21.86307-6.93107h12.09317c7.32397,0,13.08833,1.2285,17.29124,3.68642,4.20291,2.45885,6.89418,6.24303,8.0738,11.35533,.4427,2.06503,.08577,3.66245-1.06894,4.79318-1.15564,1.13166-2.81485,1.69611-4.97764,1.69611-1.91654,0-3.31751-.49066-4.20291-1.47475-.88448-.98317-1.69611-2.36016-2.43302-4.12913-.73784-1.32811-2.08993-2.24948-4.05534-2.76597-1.96726-.51556-4.84299-.77381-8.62718-.77381h-12.09317c-6.34172-.09776-10.68021,.99516-13.01455,3.28154-2.33526,2.28545-3.50289,6.64885-3.50289,13.08833v17.10678c0,6.3906,1.16763,10.74108,3.50289,13.05144,2.33434,2.31128,6.67283,3.466,13.01455,3.466h12.09317c3.78419,0,6.65991-.25824,8.62718-.77473,1.96542-.51649,3.31751-1.43786,4.05534-2.76505,.73692-1.86765,1.55961-3.26862,2.46991-4.20291,.90939-.93337,2.34725-1.40097,4.31359-1.40097,2.06503,0,3.67444,.56537,4.83007,1.69611,1.15472,1.13074,1.51165,2.72816,1.06894,4.79226-1.17962,5.06434-3.87088,8.83746-8.0738,11.31936-4.20291,2.48283-9.96727,3.72332-17.29124,3.72332h-12.09317Z"/></g><g><path class="f" d="M388.10093,227.24786c1.63884,2.29507,1.67425,3.87865,.1088,4.7542-1.52918,.91008-2.76825,.34538-3.7146-1.6941-.07339-.18133-.10966-.18133-.10966,0v20.53994c0,2.73198-.94721,4.09625-2.83991,4.09625-1.89443,0-2.84078-1.36426-2.84078-4.09625v-14.91365c0-.18133-.019-.18133-.0544,0-1.1294,3.75086-1.85816,5.91814-2.18541,6.50011-.32811,.5837-1.34786,.36611-3.05923-.6545-1.67597-1.01888-1.78477-2.67672-.32811-4.97179,.54657-.83755,1.42039-3.03937,2.62232-6.60891,1.09227-3.27769,1.92983-6.53638,2.51266-9.77953,.03627-.18133-.03627-.27285-.21845-.27285h-.54571c-2.73198,0-4.09711-1.00161-4.09711-3.00483,0-2.0015,1.36513-3.00311,4.09711-3.00311h.98262c.18219,0,.27372-.09153,.27372-.27458v-5.79035c0-2.73025,.94635-4.09625,2.84078-4.09625,1.8927,0,2.83991,1.36599,2.83991,4.09625v5.79035c0,.18305,.09066,.27458,.27372,.27458,2.33047,0,3.49614,1.00161,3.49614,3.00311,0,2.00322-1.16567,3.00483-3.49614,3.00483-.18305,0-.27372,.09153-.27372,.27285v.32811c0,.91181,.25472,1.73037,.76502,2.45913l2.95044,4.04098Zm1.09227-3.16716c0-2.73198,1.36599-4.09797,4.09711-4.09797h7.59325c2.73112,0,4.09711,1.36599,4.09711,4.09797v11.14379c0,2.73198-1.36599,4.09625-4.09711,4.09625h-6.06407c-.18219,0-.27285,.09153-.27285,.27458v6.99228c0,.18133,.09066,.25386,.27285,.21759l4.20677-1.20193c.18133-.03627,.23659-.14506,.16406-.32811l-.10966-.21759c-1.05687-2.51266-.85569-4.07898,.60097-4.69894,1.45579-.61824,2.73112,.31084,3.82426,2.78724,1.45579,3.27769,2.35724,5.46224,2.70349,6.55537,.34625,1.09141-.26422,1.9117-1.82967,2.4574-1.60344,.50944-2.73112-.21759-3.38735-2.18455-.07339-.18133-.20032-.23659-.38165-.16406l-6.22812,2.18455c-1.27533,.43691-2.22168,.77366-2.84078,1.01025s-.96535,.39201-1.03788,.46454c-.07339,.07253-.69163-.6545-1.8573-2.18455-1.1294-1.53005-1.32023-2.54029-.57334-3.03247,.74603-.49044,1.11991-1.68374,1.11991-3.57817v-20.59348Zm-.0544-6.28252c-1.38499-1.09314-1.27533-2.73198,.32725-4.91653,1.27446-1.7839,2.05762-3.36749,2.34947-4.75247,.61824-2.69572,1.8383-3.78713,3.6602-3.27769,1.82017,.50944,2.43927,1.6941,1.8573,3.55054-.07339,.18305-.019,.27285,.16319,.27285h4.09711c2.73198,0,4.09711,1.31073,4.09711,3.93392v.27285c0,2.4764-1.16567,4.04271-3.49614,4.69721-2.33047,.65623-3.60494,.77539-3.82339,.35574-.21845-.41791-1.27533-1.77527-3.16889-4.07034-.1088-.14506-.20032-.14506-.27285,0-1.1294,2.11375-2.03085,3.56954-2.70435,4.37083-.67436,.80129-1.70274,.65623-3.086-.43691Zm5.40784,9.50495c0,.18305,.09066,.27285,.27285,.27285h4.75247c.18219,0,.27372-.0898,.27372-.27285v-2.67672c0-.18133-.09153-.27285-.27372-.27285h-4.75247c-.18219,0-.27285,.09153-.27285,.27285v2.67672Zm0,7.3204c0,.18305,.09066,.27285,.27285,.27285h4.75247c.18219,0,.27372-.0898,.27372-.27285v-2.62146c0-.18305-.09153-.27458-.27372-.27458h-4.75247c-.18219,0-.27285,.09153-.27285,.27458v2.62146Zm14.42148-15.67867c-.76416,.80129-1.78477,.5837-3.05923-.6545-1.31073-1.20193-1.65698-2.13101-1.03788-2.78724,.6191-.6545,1.43852-2.22081,2.45827-4.69721,.87468-2.14828,1.41089-3.80612,1.61208-4.97179,.19946-1.16394,1.2287-1.52832,3.086-1.09141s2.49453,1.65611,1.91256,3.65934c-.03713,.18305,.0354,.27285,.21845,.27285h4.80687c2.73112,0,4.09711,.82029,4.09711,2.45913s-1.36599,2.4574-4.09711,2.4574h-1.20193c-.18219,0-.21845,.07426-.1088,.21932,1.45579,1.96696,1.51019,3.38648,.16319,4.2603-1.34699,.83755-2.14915,1.02061-2.403,.54571-.25558-.47145-1.40226-1.92897-3.44174-4.3691-.10966-.14506-.20032-.12779-.27285,.05353-1.05687,2.29507-1.96696,3.84412-2.73198,4.64368Zm.76502,35.78171c-1.8573,0-2.78638-1.36599-2.78638-4.09797v-25.89338c0-2.73025,1.36599-4.09625,4.09711-4.09625h6.61064c2.73112,0,4.09711,1.36599,4.09711,4.09625v17.15346c0,1.16567-.10966,2.08611-.32811,2.75961s-.49131,1.11041-.81942,1.31073-.71926,.44554-1.1743,.73739c-.45591,.29185-.79265,.43691-1.01111,.43691-2.73112,0-4.09711-.78229-4.09711-2.34861,0-1.60258,.54657-2.38487,1.63884-2.35033h.54657c.18219,0,.27285-.1986,.27285-.59924v-15.56988c0-.18133-.09066-.27285-.27285-.27285h-3.7146c-.18305,0-.27285,.09153-.27285,.27285v24.36334c0,2.73198-.92908,4.09797-2.78638,4.09797Z"/><path class="f" d="M486.86759,254.94415c-1.96609,0-2.94957-1.36426-2.94957-4.09625v-16.06032c0-.18133-.03713-.18133-.10966,0-1.45665,4.3691-2.48503,6.99228-3.086,7.8661s-1.66647,.78402-3.19566-.27285c-1.53005-1.09314-1.49378-2.74925,.1088-4.97179,.47318-.6545,1.40139-2.73025,2.78638-6.22726,1.31073-3.31395,2.29421-6.53638,2.94957-9.669,.03627-.18133-.03627-.27285-.21845-.27285h-1.69324c-2.73198,0-4.09711-1.00161-4.09711-3.00483s1.36513-3.00483,4.09711-3.00483h2.18455c.18219,0,.27372-.0898,.27372-.27285v-6.88349c0-2.73025,.98348-4.09625,2.94957-4.09625,1.96696,0,2.94957,1.36599,2.94957,4.09625v6.88349c0,.18305,.09066,.27285,.27372,.27285h1.09227c2.73112,0,4.09711,1.00161,4.09711,3.00483s-1.36599,3.00483-4.09711,3.00483h-1.09227c-.18305,0-.27372,.09153-.27372,.27285v.87382c0,.94808,.25472,1.8029,.76502,2.56792l3.98831,6.172c1.49292,2.33134,1.49292,3.91665,0,4.75247-1.49378,.83928-2.82264-.01727-3.98831-2.5662l-.65536-1.36599c-.07339-.18133-.10966-.18133-.10966,0v18.9011c0,2.73198-.98262,4.09625-2.94957,4.09625Zm31.24682-.32639c-2.73112,0-4.09711-.85655-4.09711-2.56792,0-1.7131,1.34699-2.54893,4.04271-2.51266,.6191,0,.92908-.27285,.92908-.82029v-2.02049c0-.18133-.09153-.27285-.27372-.27285h-14.80399c-.18219,0-.27285,.09153-.27285,.27285v3.76986c0,2.73025-.96535,4.09625-2.89518,4.09625-1.96696,0-2.95044-1.36599-2.95044-4.09625v-3.76986c0-.18133-.09066-.27285-.27285-.27285-2.04035,0-3.05923-.80129-3.05923-2.40387,0-1.56631,1.01888-2.34861,3.05923-2.34861,.18219,0,.27285-.09153,.27285-.27458v-9.28563c0-2.73198,1.36599-4.09797,4.09711-4.09797h6.11846c.18219,0,.27285-.0898,.27285-.27285v-1.53005c0-.18133-.09066-.27285-.27285-.27285h-8.46707c-2.73112,0-4.09711-.76502-4.09711-2.29334,0-1.53005,1.36599-2.29507,4.09711-2.29507h2.40387c.18133,0,.27285-.0898,.27285-.27285v-1.74764c0-.18305-.09153-.27458-.27285-.27458-2.80538,0-4.20677-.72703-4.20677-2.18455,0-1.45579,1.36599-2.18455,4.09711-2.18455,.25472,0,.38251-.09153,.38251-.27285v-1.6941c0-.18133-.09153-.27285-.27285-.27285h-1.2572c-2.73112,0-4.09711-.74603-4.09711-2.23981s1.36599-2.23981,4.09711-2.23981h1.2572c.18133,0,.27285-.0898,.27285-.27285,0-2.4764,1.00075-3.7146,3.00483-3.7146,2.00236,0,3.00397,1.2382,3.00397,3.7146,0,.18305,.09066,.27285,.27372,.27285h5.46224c.18219,0,.27285-.0898,.27285-.27285,0-2.4764,1.01974-3.7146,3.05923-3.7146,2.00236,0,3.00483,1.2382,3.00483,3.7146,0,.18305,.09066,.27285,.27285,.27285h1.7485c2.73112,0,4.09711,.74603,4.09711,2.23981s-1.36599,2.23981-4.09711,2.23981h-1.7485c-.18219,0-.27285,.09153-.27285,.27285v1.6941c0,.18133,.09066,.27285,.27285,.27285h.87468c2.73112,0,4.09711,.72876,4.09711,2.18455,0,1.45752-1.36599,2.18455-4.09711,2.18455h-.87468c-.18219,0-.27285,.09153-.27285,.27458v1.74764c0,.18305,.09066,.27285,.27285,.27285h2.73198c2.73112,0,4.09711,.76502,4.09711,2.29507,0,1.52832-1.36599,2.29334-4.09711,2.29334h-8.90484c-.18219,0-.27285,.09153-.27285,.27285v1.53005c0,.18305,.09066,.27285,.27285,.27285h6.50098c2.73112,0,4.09711,1.36599,4.09711,4.09797v9.28563c0,.18305,.09066,.27458,.27285,.27458,1.7839,0,2.67672,.78229,2.67672,2.34861,0,1.60258-.89282,2.40387-2.67672,2.40387-.18219,0-.27285,.09153-.27285,.27285v2.07575c0,1.38499-.17356,2.44877-.51894,3.1948-.34625,.74603-.73739,1.22956-1.1743,1.44888-.43691,.21759-.97484,.47318-1.61208,.76502-.63723,.29012-1.82967,.43691-3.57817,.43691Zm-14.47588-20.0495c0,.18305,.09066,.27285,.27285,.27285h4.09711c.18219,0,.27285-.0898,.27285-.27285v-1.8029c0-.18133-.09066-.27285-.27285-.27285h-4.09711c-.18219,0-.27285,.09153-.27285,.27285v1.8029Zm0,6.82823c0,.18305,.09066,.27458,.27285,.27458h4.09711c.18219,0,.27285-.09153,.27285-.27458v-2.07575c0-.18133-.09066-.27285-.27285-.27285h-4.09711c-.18219,0-.27285,.09153-.27285,.27285v2.07575Zm4.58842-26.9848c0,.18133,.09066,.27285,.27372,.27285h5.46224c.18219,0,.27285-.09153,.27285-.27285v-1.6941c0-.18133-.09066-.27285-.27285-.27285h-5.46224c-.18305,0-.27372,.09153-.27372,.27285v1.6941Zm0,6.66417c0,.18305,.09066,.27285,.27372,.27285h5.46224c.18219,0,.27285-.0898,.27285-.27285v-1.74764c0-.18305-.09066-.27458-.27285-.27458h-5.46224c-.18305,0-.27372,.09153-.27372,.27458v1.74764Zm5.90001,13.4924c0,.18305,.09066,.27285,.27285,.27285h4.31556c.18219,0,.27372-.0898,.27372-.27285v-1.8029c0-.18133-.09153-.27285-.27372-.27285h-4.31556c-.18219,0-.27285,.09153-.27285,.27285v1.8029Zm0,6.82823c0,.18305,.09066,.27458,.27285,.27458h4.31556c.18219,0,.27372-.09153,.27372-.27458v-2.07575c0-.18133-.09153-.27285-.27372-.27285h-4.31556c-.18219,0-.27285,.09153-.27285,.27285v2.07575Z"/><path class="f" d="M591.91678,254.99941c-2.11202,0-3.16803-1.36599-3.16803-4.09625v-15.29703c0-.18133-.03713-.18133-.10966,0-1.93069,4.51589-3.23192,7.20297-3.90542,8.05779-.67436,.85655-1.8124,.6286-3.41411-.68213-1.60344-1.34699-1.47565-3.0601,.38165-5.13585,.21932-.25386,1.07414-1.76491,2.56792-4.53316,1.38326-2.54893,2.54893-5.11685,3.49614-7.70377,.07253-.18133,.01813-.27285-.16406-.27285h-3.00397c-2.73198,0-4.09711-1.01888-4.09711-3.05837,0-2.00322,1.36513-3.00483,4.09711-3.00483h3.87779c.18219,0,.27372-.0898,.27372-.27285v-5.62629c0-.18305-.09153-.25558-.27372-.21932l-2.34861,.32811c-2.69572,.36438-4.1705-.30912-4.42522-2.02222-.25472-1.71137,.96448-2.78552,3.6602-3.22243,4.18777-.6545,7.48446-1.47479,9.88746-2.4574,2.54893-1.05687,4.20677-.60097,4.97179,1.36426,.76416,1.93242,.7728,3.04283,.02677,3.33295-.74689,.29185-2.32098,.69249-4.72484,1.20193-.32811,.07426-.49217,.27285-.49217,.60097v6.71943c0,.18305,.09066,.27285,.27372,.27285h2.84078c2.73112,0,4.09711,1.00161,4.09711,3.00483,0,2.03949-1.36599,3.05837-4.09711,3.05837h-2.84078c-.18305,0-.27372,.07426-.27372,.21932s.27372,.49217,.81942,1.03788c1.27446,1.2382,2.62232,2.69572,4.04271,4.37083,1.82103,2.22081,1.9117,3.84239,.27285,4.86127-1.67511,1.02061-2.53943,1.45752-2.59469,1.31073-.0544-.14506-.84619-1.51105-2.37624-4.09625-.1088-.14506-.16406-.12779-.16406,.05353v17.80969c0,2.73025-1.03788,4.09625-3.11363,4.09625Zm30.15455-.05526c-2.14915,0-3.22329-1.36426-3.22329-4.09625v-8.24948c0-.18133-.09066-.25386-.27285-.21759l-12.18167,2.07575c-2.69572,.47318-4.20677-.32811-4.53402-2.40387-.36438-2.03949,.80043-3.29496,3.49614-3.76986l13.05549-2.23981c.29099-.03454,.43691-.21759,.43691-.54571v-27.42343c0-2.73025,1.07414-4.09625,3.22329-4.09625,2.11202,0,3.16889,1.36599,3.16889,4.09625v26.54961c0,.18305,.0898,.25558,.27285,.21759l1.09227-.16233c2.69485-.47318,4.2249,.29185,4.58928,2.29334,.32725,2.03949-.83842,3.29668-3.49614,3.76986l-1.96696,.32811c-.32811,.07253-.49131,.27285-.49131,.60097v9.17683c0,2.73198-1.05687,4.09625-3.16889,4.09625Zm-8.35828-23.48952c-1.60258,1.20193-2.78552,1.26583-3.55054,.19169-.76502-1.07414-2.00322-2.28471-3.7146-3.63343-2.14915-1.63884-2.67672-3.20343-1.58445-4.69721,1.09314-1.45579,2.73198-1.40226,4.91653,.16406,2.29421,1.60258,3.56867,2.56792,3.82426,2.89431,1.67425,2.18628,1.71137,3.87865,.1088,5.08059Zm1.47565-14.31268c-1.63884,1.09314-2.61369,1.41262-2.92281,.95671-.30998-.45591-1.2382-1.45579-2.78638-3.00483-1.54818-1.54732-2.64046-2.56792-3.27769-3.05837-.63723-.49217-.39115-1.46615,.73739-2.92367,1.12854-1.45579,2.76738-1.36599,4.91653,.27285,2.3676,1.78563,3.93392,3.24315,4.69808,4.37083,.76502,1.1294,.30912,2.25881-1.36513,3.38648Z"/><path class="f" d="M689.80876,254.6713c-2.73112,0-4.09625-.98262-4.09625-2.94957s1.38326-2.93058,4.15151-2.89431c.69077,0,1.03788-.36438,1.03788-1.09314v-10.97973c0-.18305-.09153-.25558-.27372-.21932l-1.09227,.27285c-2.65859,.65623-4.24303-.05353-4.75247-2.12929-.47404-2.07575,.6191-3.40548,3.27769-3.98918l2.34861-.54571c.32811-.07253,.49217-.29185,.49217-.65623v-8.84872c0-.18133-.09153-.27285-.27372-.27285h-1.9117c-2.73112,0-4.09711-1.00161-4.09711-3.00483s1.36599-3.00483,4.09711-3.00483h1.9117c.18219,0,.27372-.0898,.27372-.27285v-5.95441c0-2.73198,1.07328-4.09797,3.22329-4.09797,2.14828,0,3.22243,1.36599,3.22243,4.09797v5.95441c0,.18305,.09066,.27285,.27372,.27285h.98262c2.73198,0,4.09711,1.00161,4.09711,3.00483s-1.36513,3.00483-4.09711,3.00483h-.98262c-.18305,0-.27372,.09153-.27372,.27285v7.53799c0,.18305,.09066,.25558,.27372,.21932l.49131-.11052c2.62232-.69077,4.18777-.07253,4.69808,1.85816,.50944,1.93069-.54657,3.26042-3.16889,3.98745l-1.74764,.43691c-.36438,.11052-.54657,.34711-.54657,.71149v12.50978c0,1.60258-.18219,2.83042-.54571,3.68697-.36524,.85482-1.00247,1.53696-1.91256,2.04812-1.38412,.76502-3.07736,1.14667-5.08059,1.14667Zm43.92153-2.40387c-.54657,2.07575-2.15001,2.71299-4.80774,1.91342-3.31395-.98434-6.73756-2.85977-10.26997-5.62802-.32811-.25386-.65536-.27285-.98348-.05353-3.78799,2.62146-7.3748,4.44163-10.76128,5.46224-2.62232,.76502-4.2249,.0898-4.80774-2.02049-.54571-2.11202,.5103-3.49701,3.16889-4.15151,1.71137-.40064,4.3337-1.73037,7.8661-3.98918,.14506-.1088,.16406-.23659,.0544-.38165-3.02297-3.49701-5.02533-6.44658-6.00881-8.85045-1.05687-2.62146-1.1294-4.07725-.21845-4.3691,.18219-.03627,.18219-.05526,0-.05526-1.71224,0-2.56706-.98262-2.56706-2.94957,0-1.93069,1.36513-2.89604,4.09711-2.89604h6.39132c.18133,0,.27285-.0898,.27285-.27285v-6.00967c0-.18133-.09153-.27285-.27285-.27285h-7.3748c-2.73198,0-4.09711-.99988-4.09711-3.00483,0-2.0015,1.36513-3.00311,4.09711-3.00311h7.3748c.18133,0,.27285-.09153,.27285-.27458v-3.44002c0-2.73198,1.07414-4.09797,3.22329-4.09797,2.14828,0,3.22243,1.36599,3.22243,4.09797v3.44002c0,.18305,.09066,.27458,.27372,.27458h7.8661c2.73112,0,4.09711,1.00161,4.09711,3.00311,0,2.00495-1.36599,3.00483-4.09711,3.00483h-7.8661c-.18305,0-.27372,.09153-.27372,.27285v6.00967c0,.18305,.09066,.27285,.27372,.27285h3.87865c1.60171,0,3.16803,.21932,4.69808,.65623,2.00236,.54571,2.63959,2.13101,1.9117,4.75247-1.31159,4.7352-4.28016,9.39615-8.90484,13.98457-.14592,.14679-.14592,.27285,0,.38165,3.38735,2.36933,5.77222,3.71632,7.15634,4.04271,2.65859,.65623,3.69646,2.04122,3.11449,4.15151Zm-15.56901-12.67211c.14506,.14506,.29099,.14506,.43691,0,2.84078-2.65945,5.02533-5.71782,6.55537-9.17856,.07253-.18133,.01727-.27285-.16406-.27285h-12.78263c-.18305,0-.23745,.09153-.16406,.27285,1.45579,3.46074,3.49614,6.51911,6.11846,9.17856Z"/><path class="f" d="M801.68704,252.8684c-2.11288,1.74937-3.89765,1.76664-5.35344,.05526-1.49378-1.74764-1.73037-3.05837-.71063-3.93392,1.01974-.87382,1.91256-2.78552,2.67672-5.73509,.5103-1.96696,.76502-4.58842,.76502-7.8661v-4.15151c0-.18305-.0544-.20032-.16406-.05526-2.22168,2.29507-3.38648,3.47801-3.49614,3.55054-2.25794,1.56631-3.98745,1.45752-5.18938-.32811-1.2382-1.82017-.70976-3.49528,1.58445-5.02533,2.65772-1.74764,5.73595-5.91814,9.23209-12.50978,.07253-.14506,.01727-.21759-.16406-.21759h-7.48446c-2.73112,0-4.09711-1.02061-4.09711-3.0601s1.36599-3.05837,4.09711-3.05837h9.83306c.47318,0,.80129-.21932,.98348-.65623,.65536-1.67511,1.14754-3.105,1.47479-4.28793,.32811-1.18294,1.58445-1.44716,3.76986-.79265,2.18455,.65623,2.82178,2.29507,1.9117,4.91653l-.16406,.54743c-.07339,.18133-.019,.27285,.16406,.27285h22.28845c2.73112,0,4.09711,1.01888,4.09711,3.05837s-1.36599,3.0601-4.09711,3.0601h-24.52826c-.47404,0-.80129,.21759-.98348,.6545-.29185,.76502-.87382,1.9117-1.74764,3.44174-.10966,.14679-.07339,.21932,.1088,.21932h21.03211c2.73112,0,4.09711,1.36426,4.09711,4.09625v22.88855c0,1.67684-.20119,2.96857-.60097,3.87865-.40151,.91008-1.11991,1.60258-2.15778,2.07575s-1.68547,.72876-1.93933,.76502c-1.42039,.11052-2.84078,.18305-4.26117,.21932h-.32811c-2.73112,.07253-4.09625-.92908-4.09625-3.00483-.03713-2.11202,1.32886-3.1309,4.09625-3.05837,1.12854,.03627,1.90306,.0449,2.32184,.0259,.41878-.01727,.6286-.37301,.6286-1.06378v-3.00483c0-.18305-.09153-.27285-.27285-.27285h-19.72138c-.36438,0-.58283,.16233-.65536,.49044-1.01974,4.44336-2.00322,7.06481-2.94957,7.8661Zm3.87865-14.0381c0,.18133,.09066,.27285,.27285,.27285h19.17482c.18133,0,.27285-.09153,.27285-.27285v-3.00483c0-.18133-.09153-.27285-.27285-.27285h-19.01076c-.21845,0-.32811,.1088-.32811,.32639l-.1088,2.9513Zm.1088-8.95924c0,.18305,.09066,.27285,.27372,.27285h19.06516c.18133,0,.27285-.0898,.27285-.27285v-2.89604c0-.18133-.09153-.27285-.27285-.27285h-19.06516c-.18305,0-.27372,.09153-.27372,.27285v2.89604Z"/><path class="f" d="M897.06722,254.89061c-1.89443,0-2.84078-1.36599-2.84078-4.09797v-40.64298c0-2.69399,1.34699-4.11524,4.04271-4.2603l8.41267-.38338c2.03862-.1088,3.53154,.25558,4.47962,1.09314,.90922,.80129,1.00075,2.33134,.27285,4.58842l-3.49614,10.48929c-.18305,.61996-.07339,1.18294,.32725,1.6941,2.22168,2.91331,3.33295,6.44485,3.33295,10.59636,0,3.53327-.27372,5.5175-.81942,5.95441-1.09314,.80129-1.8124,1.33836-2.15778,1.61294-.34711,.27285-1.1933,.53707-2.54029,.79093-.83842,.14679-1.77527,.19169-2.81315,.13643-1.03788-.05353-1.53955-.99125-1.50242-2.81315,.07253-1.85644,.54571-2.76652,1.42039-2.73025h.76416c.32811,0,.5742-.07253,.73826-.21932,.16319-.14506,.40928-.34538,.73739-.60097,.32725-.25386,.49131-1.20193,.49131-2.84078,0-3.53154-.5647-6.00967-1.69324-7.42919-1.42039-1.71137-1.8029-3.62307-1.14754-5.73509,.43691-1.34699,1.12854-3.98918,2.07575-7.92137,.03627-.18305-.03627-.27285-.21845-.27285h-4.75247c-.18305,0-.27285,.0898-.27285,.27285v38.62076c0,2.73198-.94808,4.09797-2.84078,4.09797Zm18.2725-.40928c-.67436,.41791-1.50155-.21068-2.48503-1.88579-1.01974-1.63884-1.09314-2.72162-.21845-3.25006,.87382-.52671,1.31073-1.86507,1.31073-4.01508v-35.07022c0-2.73198,1.36599-4.09797,4.09711-4.09797h16.49723c2.73198,0,4.09711,1.36599,4.09711,4.09797v16.87888c0,2.73198-1.36513,4.09797-4.09711,4.09797h-5.07972c-.18305,0-.25558,.09153-.21845,.27285,.58197,2.00322,1.25633,3.80612,2.02136,5.4087,.07253,.18133,.18133,.21759,.32725,.1088,2.51266-1.8927,4.11524-3.21379,4.80774-3.96155,.69077-.74603,1.72864-.35402,3.11363,1.17603,1.42039,1.52832,1.01888,3.1499-1.20193,4.86127-.36438,.29185-1.67597,1.16567-3.93305,2.62146-.14592,.11052-.16406,.23831-.05526,.38338,2.33047,3.16716,3.71546,4.86127,4.15237,5.08059,2.54807,1.12768,3.29496,2.73025,2.23981,4.80601-1.02061,2.07575-2.75011,2.44013-5.19025,1.09314-1.78477-.98262-3.93305-3.55054-6.44572-7.70205-2.29421-3.75086-4.07898-8.28574-5.35344-13.60292-.07339-.36438-.29185-.54571-.65536-.54571h-2.45827c-.18305,0-.27372,.09153-.27372,.27285v14.80313c0,.18305,.09066,.25558,.27372,.21932l2.83991-.65623c2.65859-.58197,4.20677,.07426,4.64368,1.96696,.47318,1.85816-.61996,3.13263-3.27769,3.82339-5.64529,1.45752-8.80468,2.39523-9.47818,2.81487Zm4.99856-38.75891c0,.18305,.09066,.27285,.27372,.27285h11.47191c.18133,0,.27285-.0898,.27285-.27285v-3.7146c0-.18133-.09153-.27285-.27285-.27285h-11.47191c-.18305,0-.27372,.09153-.27372,.27285v3.7146Zm0,9.61374c0,.18305,.09066,.27285,.27372,.27285h11.47191c.18133,0,.27285-.0898,.27285-.27285v-3.82339c0-.18133-.09153-.27285-.27285-.27285h-11.47191c-.18305,0-.27372,.09153-.27372,.27285v3.82339Z"/><path class="f" d="M1003.75525,228.66912c-2.00322,1.93069-3.89765,1.89443-5.68155-.1088-1.78477-1.96696-1.62071-3.84239,.49217-5.62802,.58197-.47145,2.20268-2.5662,4.86127-6.28079,2.65859-3.7146,4.31556-6.37405,4.97179-7.97663,1.05515-2.51266,2.74925-3.27769,5.07972-2.29334,2.33047,1.01888,2.95044,2.76825,1.8573,5.24292-.76416,1.7131-2.62146,4.72657-5.5719,9.04213-2.94957,4.31556-4.9528,6.98365-6.00881,8.00253Zm37.47495,24.58265c-2.25881,1.16394-4.02458,.54571-5.29904-1.85816l-.60097-1.09141c-.21845-.43691-.56557-.63723-1.03788-.60097l-22.6157,1.9117c-1.31159,.1088-2.60419,.27285-3.87865,.49217l-1.6941,.32639c-2.58606,.43691-4.2603-.52844-5.02533-2.89431-.76502-2.3676-.47404-3.95118,.87382-4.75247,.14506-.11052,.6191-.58197,1.42039-1.42125l.16406-.16406c.94635-.98262,1.9117-1.96523,2.89518-2.94957,.43691-.43691,1.94796-2.56792,4.53402-6.39132,3.02297-4.47962,4.9528-7.57426,5.79035-9.28736,1.20193-2.47467,3.00483-3.07564,5.4087-1.80117,2.43927,1.27446,2.96771,3.11363,1.58358,5.51577-2.76738,4.844-6.86449,10.2717-12.29046,16.27964-.10966,.14679-.07339,.21932,.1088,.21932l19.50207-1.31246c.18219,0,.21845-.07253,.10966-.21759l-2.56792-3.93392c-1.49378-2.25708-1.29346-4.04098,.60097-5.35344,1.8573-1.27446,3.58681-.83755,5.18938,1.31246,3.82426,5.20838,6.57351,9.39443,8.24948,12.56332,1.2736,2.40387,.80043,4.20677-1.42039,5.4087Zm3.65934-25.34768c-1.52918,2.25881-3.40548,2.54893-5.62629,.87382-.76502-.58197-2.40387-2.65772-4.91653-6.22726-2.33134-3.20343-4.2059-6.50011-5.62629-9.88832-.18305-.43691-.51117-.6545-.98348-.6545h-3.93305c-2.73198,0-4.09711-1.1294-4.09711-3.38648,0-2.22254,1.36513-3.33295,4.09711-3.33295h5.95441c2.47553,0,4.07811,1.18466,4.80687,3.55054,.50944,1.60258,1.94796,4.09797,4.31556,7.48446,2.54893,3.64207,4.13337,5.66256,4.75247,6.0632,2.3676,1.42125,2.78638,3.26042,1.25633,5.5175Z"/><path class="f" d="M1136.17261,254.89061c-2.73112-.03627-4.06084-1.22093-3.98745-3.55054,.10966-2.29507,.63637-3.41411,1.58445-3.36058,.94635,.05526,1.8927,.0639,2.84078,.02763,1.42039-.07253,2.35724-.1088,2.81315-.1088,.45504,0,.683-.40064,.683-1.20193v-32.99619c0-.18133-.09153-.27285-.27372-.27285h-33.75949c-2.73198,0-4.09711-1.03788-4.09711-3.11363,0-2.03949,1.36513-3.05837,4.09711-3.05837h36.60027c2.73112,0,4.09711,1.36599,4.09711,4.09625v35.39833c0,1.93242-.10102,3.14126-.30048,3.63343-.20032,.49217-.41878,1.01025-.65536,1.55768-.23745,.54571-.63723,.95498-1.20193,1.22784-.5647,.27458-1.44716,.72012-2.64909,1.33836-.54657,.29185-2.47726,.41964-5.79121,.38338Zm-29.55358-31.90305c-2.73112,0-4.09711-.94635-4.09711-2.84078,0-1.8927,1.36599-2.84078,4.09711-2.84078h23.92729c2.73112,0,4.09711,.94808,4.09711,2.84078,0,1.89443-1.36599,2.84078-4.09711,2.84078h-23.92729Zm1.85816,26.44082c-2.11288,0-3.16889-1.36599-3.16889-4.09797v-14.20389c0-2.73025,1.36599-4.09625,4.09711-4.09625h18.30013c2.73198,0,4.09711,1.36599,4.09711,4.09625v10.26997c0,2.73198-1.36513,4.09797-4.09711,4.09797h-15.78747c-.18219,0-.27285,.09153-.27285,.27285,0,2.44013-1.05687,3.66106-3.16803,3.66106Zm3.16803-9.77953c0,.18305,.09066,.27285,.27285,.27285h13.22041c.18133,0,.27285-.0898,.27285-.27285v-6.77297c0-.18305-.09153-.27285-.27285-.27285h-13.22041c-.18219,0-.27285,.0898-.27285,.27285v6.77297Z"/></g></g></svg>